<svg id="Icons" xmlns="http://www.w3.org/2000/svg" width="80" height="80" viewBox="0 0 80 80">
  <path id="Path_2609" data-name="Path 2609" d="M0,12.8A12.8,12.8,0,0,1,12.8,0H67.2A12.8,12.8,0,0,1,80,12.8V67.2A12.8,12.8,0,0,1,67.2,80H12.8A12.8,12.8,0,0,1,0,67.2Z" fill="#f4e6ff"/>
  <path id="Path_2610" data-name="Path 2610" d="M31.75,12.417A19.333,19.333,0,1,1,12.417,31.75,19.341,19.341,0,0,1,31.75,12.417ZM39.193,25.39a.868.868,0,0,0-1.083-1.1l-9.9,3.093a1.291,1.291,0,0,0-.851.851l-3.093,9.918a.866.866,0,0,0,1.083,1.083l9.86-3.093a1.253,1.253,0,0,0,.851-.851Z" transform="translate(7.45 7.45)" fill="#a061ce"/>
</svg>
