<svg id="Icons" xmlns="http://www.w3.org/2000/svg" width="80" height="80" viewBox="0 0 80 80">
  <path id="Path_2613" data-name="Path 2613" d="M0,12.8A12.8,12.8,0,0,1,12.8,0H67.2A12.8,12.8,0,0,1,80,12.8V67.2A12.8,12.8,0,0,1,67.2,80H12.8A12.8,12.8,0,0,1,0,67.2Z" fill="#ffe6e6"/>
  <path id="Path_2614" data-name="Path 2614" d="M32.376,35.21c6.634,0,12.3,1.052,12.3,5.26s-5.628,5.3-12.3,5.3c-6.634,0-12.3-1.052-12.3-5.258S25.706,35.21,32.376,35.21Zm10.606-2.534a30.074,30.074,0,0,1,6.27.548c2.134.42,3.538,1.276,4.12,2.521a3.717,3.717,0,0,1,0,3.228c-.89,1.931-3.758,2.551-4.873,2.711a.35.35,0,0,1-.391-.4c.57-5.351-3.961-7.888-5.133-8.471a.087.087,0,0,1-.056-.091A.073.073,0,0,1,42.983,32.676Zm-21.492,0,.478,0a.071.071,0,0,1,.06.049.089.089,0,0,1-.054.092c-1.174.583-5.7,3.12-5.135,8.469a.35.35,0,0,1-.389.4c-1.115-.16-3.983-.78-4.873-2.711a3.706,3.706,0,0,1,0-3.228c.582-1.245,1.984-2.1,4.118-2.523a30.241,30.241,0,0,1,6.272-.547ZM32.376,14.833a8.184,8.184,0,1,1-8.138,8.183A8.131,8.131,0,0,1,32.376,14.833ZM43.424,16.2a6.913,6.913,0,0,1,6.621,8.727,6.792,6.792,0,0,1-6.815,5.069A6.588,6.588,0,0,1,42.3,29.9a.306.306,0,0,1-.206-.472,11.294,11.294,0,0,0-.163-12.784.2.2,0,0,1-.031-.212.251.251,0,0,1,.159-.1A6.775,6.775,0,0,1,43.424,16.2Zm-21.9,0a6.815,6.815,0,0,1,1.371.141.264.264,0,0,1,.159.1.2.2,0,0,1-.031.212,11.294,11.294,0,0,0-.163,12.784.306.306,0,0,1-.206.472,6.364,6.364,0,0,1-.935.091A6.792,6.792,0,0,1,14.9,24.925,6.911,6.911,0,0,1,21.524,16.2Z" transform="translate(6.725 8.9)" fill="#e87d7e"/>
</svg>
