<svg id="Icons" xmlns="http://www.w3.org/2000/svg" width="80" height="80" viewBox="0 0 80 80">
  <path id="Path_2611" data-name="Path 2611" d="M0,12.8A12.8,12.8,0,0,1,12.8,0H67.2A12.8,12.8,0,0,1,80,12.8V67.2A12.8,12.8,0,0,1,67.2,80H12.8A12.8,12.8,0,0,1,0,67.2Z" fill="#e7ffe6"/>
  <path id="Path_2612" data-name="Path 2612" d="M24.862,34.591a4.915,4.915,0,0,1,4.911,4.951v6.591a4.926,4.926,0,0,1-4.911,4.949H18.327a4.938,4.938,0,0,1-4.911-4.949V39.543a4.928,4.928,0,0,1,4.911-4.951Zm22.311,0a4.928,4.928,0,0,1,4.911,4.951v6.591a4.938,4.938,0,0,1-4.911,4.949H40.638a4.926,4.926,0,0,1-4.911-4.949V39.543a4.915,4.915,0,0,1,4.911-4.951ZM24.862,12.417a4.926,4.926,0,0,1,4.911,4.951v6.591a4.914,4.914,0,0,1-4.911,4.949H18.327a4.926,4.926,0,0,1-4.911-4.949V17.368a4.939,4.939,0,0,1,4.911-4.951Zm22.311,0a4.939,4.939,0,0,1,4.911,4.951v6.591a4.926,4.926,0,0,1-4.911,4.949H40.638a4.914,4.914,0,0,1-4.911-4.949V17.368a4.926,4.926,0,0,1,4.911-4.951Z" transform="translate(8.05 7.45)" fill="#a7e4a4"/>
</svg>
